<?xml version="1.0" standalone="no"?>
<!DOCTYPE svg PUBLIC "-//W3C//DTD SVG 20010904//EN"
 "http://www.w3.org/TR/2001/REC-SVG-20010904/DTD/svg10.dtd">
<svg version="1.0" xmlns="http://www.w3.org/2000/svg"
 width="1024.000000pt" height="1024.000000pt" viewBox="0 0 1024.000000 1024.000000"
 preserveAspectRatio="xMidYMid meet">

<g transform="translate(0.000000,1024.000000) scale(0.100000,-0.100000)"
fill="#000000" stroke="none">
<path d="M793 6332 c-92 -33 -158 -97 -194 -192 -18 -48 -19 -87 -19 -1020 0
-953 0 -970 21 -1024 27 -73 95 -147 161 -177 l53 -24 965 0 c965 0 965 0
1011 21 69 32 123 86 155 156 l29 63 0 985 0 985 -22 48 c-35 75 -77 121 -145
158 l-63 34 -950 2 c-892 2 -953 2 -1002 -15z m1977 -48 c58 -27 106 -76 136
-139 l24 -50 -1 -975 c0 -779 -3 -982 -13 -1012 -20 -56 -73 -116 -130 -146
l-51 -27 -955 0 -955 0 -48 25 c-57 29 -102 76 -131 139 -21 46 -21 54 -24
990 -2 658 1 961 8 998 22 102 108 194 200 212 25 5 461 8 970 8 916 -2 925
-2 970 -23z"/>
<path d="M2325 5861 c-44 -19 -44 -14 -47 -571 -3 -528 -3 -536 -26 -591 -12
-30 -34 -67 -50 -81 -34 -32 -100 -51 -150 -42 -80 14 -115 47 -145 133 -21
64 -22 81 -23 451 -1 212 -2 438 -3 503 l-1 117 -34 38 -35 37 -148 -3 c-81
-2 -150 -5 -152 -8 -4 -4 0 -13 35 -76 12 -22 15 -110 19 -515 4 -441 6 -495
24 -560 38 -146 92 -220 198 -275 207 -108 524 -79 676 61 58 54 102 150 123
271 14 83 15 158 10 590 -5 425 -8 496 -21 509 -12 12 -42 16 -123 18 -59 2
-116 -1 -127 -6z"/>
<path d="M890 5645 l0 -205 210 0 210 0 0 205 0 205 -210 0 -210 0 0 -205z
m360 6 l0 -148 -94 -7 c-52 -3 -120 -3 -150 0 l-56 7 0 138 c0 121 2 139 18
148 9 6 77 11 150 11 l132 0 0 -149z"/>
<path d="M1010 5650 l0 -90 90 0 90 0 0 90 0 90 -90 0 -90 0 0 -90z"/>
<path d="M1380 5765 c0 -20 5 -25 25 -25 20 0 25 5 25 25 0 20 -5 25 -25 25
-20 0 -25 -5 -25 -25z"/>
<path d="M1380 5650 c0 -25 4 -30 25 -30 21 0 25 -5 25 -29 0 -25 -4 -30 -27
-33 l-28 -3 0 -90 0 -90 -62 -3 c-62 -3 -63 -3 -63 -32 0 -27 3 -30 30 -30 27
0 30 -3 30 -30 l0 -30 -60 0 -60 0 0 60 0 60 -150 0 -150 0 0 -24 c0 -19 7
-26 30 -31 29 -6 30 -8 30 -66 0 -59 0 -59 -30 -59 l-30 0 0 -175 c0 -144 2
-175 14 -175 8 0 21 -3 30 -6 14 -5 16 6 16 85 l0 91 30 0 c27 0 30 -3 30 -30
0 -30 0 -30 59 -30 58 0 60 -1 63 -27 2 -22 9 -29 31 -31 23 -3 27 -8 27 -33
0 -29 0 -29 60 -29 l60 0 0 30 c0 27 3 30 30 30 l30 0 0 -89 0 -90 33 -3 c28
-3 32 -6 30 -30 -2 -26 1 -28 32 -28 l35 0 0 48 c0 56 -7 69 -40 73 -23 4 -25
9 -28 62 -3 49 -6 57 -23 57 -13 0 -24 10 -30 29 -8 22 -18 31 -37 33 -21 2
-28 9 -30 31 -3 23 -8 27 -33 27 -26 0 -29 -3 -29 -30 0 -27 3 -30 30 -30 27
0 30 -3 30 -30 l0 -31 -57 3 -58 3 -3 58 c-3 56 -4 57 -32 57 -27 0 -30 3 -30
30 0 27 -3 30 -31 30 -28 0 -30 2 -27 33 2 27 7 32 28 32 20 0 26 6 28 28 3
27 3 27 -57 27 -61 0 -61 0 -61 29 0 25 4 30 28 33 21 2 28 9 30 31 3 23 8 27
33 27 29 0 29 -1 29 -55 0 -54 0 -55 30 -55 28 0 37 -14 31 -52 0 -3 13 -9 29
-13 22 -5 30 -13 32 -33 2 -21 9 -28 31 -30 24 -3 27 0 27 27 0 28 -3 31 -30
31 -27 0 -30 3 -30 30 0 27 3 30 30 30 25 0 30 -4 30 -24 0 -19 6 -25 28 -28
26 -3 27 -6 30 -66 l3 -63 62 3 c59 3 62 4 65 30 3 24 -1 27 -30 30 l-33 3 -3
64 -3 63 -60 -6 -59 -7 0 30 c0 26 4 31 33 36 29 6 33 10 29 31 -4 23 -2 24
56 24 58 0 61 1 66 28 3 15 4 43 2 62 -3 29 -7 34 -25 32 -15 -2 -24 4 -31 23
-14 36 -14 35 19 35 34 0 41 23 41 126 l0 64 -60 0 -60 0 0 -30z m-370 -546
c0 -31 3 -34 30 -34 25 0 30 -4 30 -25 0 -21 -5 -25 -30 -25 -25 0 -30 4 -30
24 0 19 -6 25 -27 28 -47 5 -46 62 1 64 23 2 26 -2 26 -32z"/>
<path d="M1130 5105 c0 -18 7 -26 24 -31 33 -8 44 1 38 31 -3 20 -10 25 -33
25 -24 0 -29 -4 -29 -25z"/>
<path d="M1012 4863 c2 -22 9 -29 31 -31 24 -3 27 0 27 27 0 28 -3 31 -31 31
-27 0 -30 -3 -27 -27z"/>
<path d="M890 4560 l0 -210 210 0 210 0 0 210 0 210 -210 0 -210 0 0 -210z
m360 0 l0 -150 -150 0 -150 0 0 150 0 150 150 0 150 0 0 -150z"/>
<path d="M1010 4560 l0 -90 90 0 90 0 0 90 0 90 -90 0 -90 0 0 -90z"/>
<path d="M1370 4568 c0 -46 3 -113 7 -150 5 -63 8 -68 29 -68 20 0 24 5 24 30
0 28 3 30 35 30 l35 0 0 90 0 90 -29 0 c-24 0 -30 5 -34 30 -6 25 -11 30 -37
30 l-30 0 0 -82z"/>
<path d="M3297 5925 c-48 -17 -82 -48 -110 -100 -22 -39 -22 -49 -25 -574 -2
-362 1 -550 8 -586 20 -98 80 -158 169 -170 96 -13 176 30 215 115 19 42 21
69 27 400 4 241 10 368 19 395 42 133 118 193 232 183 59 -6 94 -36 110 -94 6
-22 13 -211 17 -444 5 -369 8 -408 25 -440 31 -59 67 -90 124 -106 114 -33
220 19 253 124 7 23 13 154 15 357 5 340 12 412 49 486 49 96 149 141 243 108
78 -27 92 -114 92 -575 0 -350 2 -372 48 -432 96 -131 307 -93 353 64 11 39
14 135 14 474 0 466 -4 505 -62 612 -98 180 -347 261 -575 187 -83 -28 -107
-41 -174 -95 l-56 -45 -35 36 c-158 162 -464 176 -669 29 l-48 -33 -12 27
c-16 38 -76 89 -121 101 -50 14 -80 13 -126 -4z m138 -49 c41 -18 72 -64 81
-123 3 -24 8 -43 11 -43 3 0 27 19 53 43 115 102 235 144 386 134 133 -9 251
-69 304 -156 14 -22 27 -41 30 -41 3 0 25 21 50 46 59 61 118 100 188 126 84
32 263 31 345 -1 115 -45 181 -115 219 -236 22 -68 23 -80 23 -515 0 -431 -1
-446 -21 -485 -28 -54 -92 -88 -155 -82 -58 5 -93 30 -121 87 -22 44 -23 54
-28 450 -5 386 -6 407 -26 450 -28 59 -62 90 -115 101 -130 30 -260 -53 -306
-195 -13 -42 -17 -116 -22 -411 -6 -333 -7 -363 -26 -400 -40 -79 -160 -109
-233 -57 -64 46 -66 62 -72 522 l-5 415 -25 44 c-35 61 -68 83 -135 89 -101 8
-192 -37 -244 -121 -46 -75 -53 -131 -60 -507 -6 -334 -7 -357 -27 -390 -31
-53 -87 -82 -152 -77 -61 4 -94 29 -123 92 -17 37 -19 76 -19 585 0 514 2 547
19 587 33 72 125 102 206 69z"/>
<path d="M3313 5835 c-64 -28 -63 -17 -63 -617 0 -497 2 -546 18 -578 38 -78
170 -73 204 8 8 18 14 150 18 382 6 327 8 360 28 421 49 149 160 233 304 231
109 -2 174 -57 204 -172 13 -53 16 -128 18 -450 1 -369 2 -386 21 -420 45 -76
159 -76 197 0 16 31 18 69 18 322 0 404 21 527 105 617 64 69 123 95 220 99
73 3 84 1 120 -23 23 -15 51 -42 64 -61 44 -64 51 -124 51 -484 1 -393 7 -465
44 -497 59 -50 154 -34 181 31 21 49 22 875 1 951 -39 148 -120 219 -284 247
-145 25 -279 -19 -391 -127 -88 -85 -106 -86 -158 -8 -48 72 -105 108 -206
130 -148 32 -305 -11 -419 -116 -48 -44 -62 -52 -90 -49 -32 3 -33 5 -39 54
-8 67 -24 93 -64 110 -42 17 -61 17 -102 -1z"/>
<path d="M5919 5929 c-80 -10 -192 -47 -256 -85 -27 -15 -80 -59 -119 -98 -55
-54 -81 -91 -112 -156 -67 -139 -77 -190 -77 -385 0 -161 2 -175 29 -259 75
-227 260 -394 490 -440 113 -23 312 -21 408 3 161 41 304 138 370 250 50 86
56 129 26 189 -17 35 -34 53 -68 70 -88 44 -153 24 -275 -88 -44 -40 -104 -84
-133 -98 -111 -51 -244 -36 -324 36 -44 40 -98 140 -98 184 l0 26 368 4 c313
3 373 6 410 21 66 25 98 53 124 105 46 94 19 290 -61 427 -130 224 -393 334
-702 294z m274 -53 c269 -52 460 -274 462 -536 0 -104 -16 -138 -83 -177 l-47
-28 -402 -3 c-324 -2 -403 -6 -403 -16 0 -36 23 -125 44 -171 33 -73 82 -124
151 -157 80 -38 200 -40 286 -4 57 23 153 92 199 141 34 36 92 65 132 65 44 0
92 -31 108 -69 42 -101 -118 -281 -308 -347 -187 -64 -435 -52 -602 29 -95 46
-215 169 -263 267 -54 112 -71 193 -70 345 0 205 48 352 159 482 132 154 389
226 637 179z"/>
<path d="M5924 5840 c-178 -26 -322 -121 -404 -265 -54 -95 -72 -176 -77 -340
-5 -133 -3 -160 16 -230 53 -194 177 -329 357 -391 104 -36 311 -46 426 -20
138 31 243 95 318 195 63 84 51 161 -26 161 -35 0 -59 -15 -140 -90 -82 -76
-157 -118 -246 -136 -179 -38 -330 33 -417 195 -33 63 -58 180 -48 223 l7 27
403 3 c448 4 465 6 500 66 14 25 19 50 18 105 -3 189 -110 361 -274 442 -112
54 -272 76 -413 55z m246 -161 c105 -49 177 -148 205 -279 14 -66 14 -75 0
-96 l-15 -24 -325 0 c-359 0 -355 -1 -355 65 0 44 36 160 64 204 49 76 121
130 203 151 66 16 162 7 223 -21z"/>
<path d="M5979 5660 c-87 -15 -171 -77 -213 -159 -20 -38 -49 -159 -41 -171 7
-11 607 -14 617 -4 8 8 -19 119 -41 169 -54 123 -182 189 -322 165z m156 -64
c63 -29 107 -78 134 -151 12 -30 21 -60 21 -65 0 -6 -99 -10 -256 -10 l-256 0
6 33 c3 17 19 57 34 87 56 111 202 160 317 106z"/>
<path d="M7041 5930 c-65 -16 -121 -76 -141 -152 -7 -25 -10 -229 -8 -586 3
-542 3 -547 25 -588 81 -151 285 -151 366 0 21 39 22 56 28 396 5 339 7 358
29 415 39 101 138 175 235 175 54 0 117 -40 142 -90 35 -70 43 -159 43 -515 0
-364 3 -378 66 -437 30 -27 108 -58 147 -58 48 0 103 24 138 59 66 65 69 92
69 530 -1 426 -7 490 -57 602 -17 36 -47 85 -68 108 -43 47 -138 104 -211 126
-162 49 -355 17 -497 -82 -56 -39 -63 -40 -71 -10 -7 28 -50 73 -88 93 -36 19
-104 25 -147 14z m128 -58 c49 -25 71 -60 78 -125 3 -31 9 -57 13 -57 3 0 16
13 28 29 34 46 140 117 212 141 82 28 218 37 291 20 139 -33 227 -99 283 -210
53 -106 57 -157 54 -610 -3 -384 -4 -407 -23 -439 -30 -51 -67 -74 -127 -78
-69 -5 -114 19 -148 78 l-25 44 -6 385 c-5 401 -7 416 -53 493 -72 125 -286
121 -391 -7 -81 -99 -89 -155 -94 -601 -1 -145 -6 -265 -13 -285 -40 -132
-228 -149 -287 -27 -22 45 -22 49 -21 587 0 574 1 581 48 634 41 45 122 58
181 28z"/>
<path d="M7070 5842 c-33 -5 -60 -30 -76 -69 -20 -47 -20 -1078 -1 -1126 20
-48 42 -61 102 -61 65 -1 98 24 114 89 7 27 11 155 11 327 0 156 5 315 10 353
20 138 91 237 210 293 44 21 70 26 130 26 90 0 140 -22 194 -85 73 -85 86
-175 86 -599 0 -303 1 -327 19 -356 36 -58 134 -69 179 -21 36 38 42 111 42
496 0 400 -6 460 -56 551 -53 97 -122 148 -236 175 -171 40 -329 -4 -466 -130
-38 -36 -76 -65 -84 -65 -25 0 -38 23 -38 67 0 99 -53 150 -140 135z"/>
<path d="M8565 5935 c-5 -2 -22 -6 -37 -9 -40 -9 -98 -64 -122 -116 -20 -43
-21 -64 -24 -425 -2 -304 0 -401 12 -484 37 -243 161 -372 394 -406 154 -23
291 10 408 99 l71 53 17 -38 c30 -66 109 -119 181 -119 73 0 147 49 177 117
17 39 18 79 20 600 l2 558 -23 52 c-12 28 -33 60 -45 72 -28 26 -98 51 -145
51 -79 -1 -169 -70 -190 -147 -6 -21 -11 -139 -11 -268 -1 -320 -13 -473 -43
-538 -47 -102 -107 -141 -218 -142 -67 0 -80 3 -110 27 -67 51 -72 81 -78 523
-5 355 -8 393 -25 425 -23 45 -54 78 -86 95 -26 14 -108 27 -125 20z m119 -72
c14 -10 35 -36 46 -59 19 -38 20 -60 20 -380 1 -381 10 -466 57 -542 39 -63
89 -87 178 -87 144 1 248 85 287 233 6 20 13 192 17 382 6 341 7 346 31 394
33 65 75 89 148 83 60 -4 97 -27 127 -78 19 -33 20 -55 23 -573 2 -463 1 -546
-13 -591 -18 -65 -53 -93 -122 -102 -95 -11 -151 36 -173 144 -6 29 -14 53
-17 53 -3 0 -38 -31 -77 -68 -53 -50 -91 -76 -142 -98 -65 -27 -77 -29 -204
-29 -116 0 -143 3 -190 23 -75 29 -159 106 -192 174 -54 110 -62 185 -63 603
0 340 2 385 18 431 19 55 34 73 82 99 38 20 124 14 159 -12z"/>
<path d="M8565 5842 c-16 -2 -40 -13 -51 -24 -43 -39 -46 -80 -42 -519 4 -389
5 -418 25 -477 38 -114 97 -176 208 -218 39 -15 76 -19 170 -19 115 0 123 1
189 32 46 23 92 56 142 105 68 66 77 71 101 62 22 -8 28 -18 39 -71 16 -81 29
-102 70 -119 45 -19 95 -10 126 23 l23 25 3 559 c2 501 1 564 -14 594 -34 73
-155 70 -199 -5 -19 -33 -20 -56 -26 -390 -7 -369 -9 -392 -54 -480 -66 -129
-234 -199 -378 -159 -47 13 -112 70 -138 122 -42 81 -49 152 -49 520 0 412 -2
419 -84 436 -17 3 -44 5 -61 3z"/>
<path d="M5814 4357 c-2 -7 -3 -65 -2 -128 2 -93 6 -114 18 -114 11 0 17 17
21 64 7 71 27 98 60 81 14 -8 19 -25 21 -78 2 -52 6 -67 18 -67 24 0 27 141 4
166 -18 20 -69 26 -79 9 -14 -23 -25 -7 -25 35 0 34 -4 45 -15 45 -9 0 -18 -6
-21 -13z"/>
<path d="M4826 4291 c-3 -4 7 -46 23 -92 22 -66 32 -84 47 -84 14 0 24 15 40
59 l21 60 20 -60 c15 -45 24 -59 39 -59 15 0 25 18 47 84 20 59 25 87 18 94
-15 15 -25 1 -46 -63 -11 -32 -21 -49 -24 -40 -3 8 -12 35 -21 60 -22 65 -49
62 -70 -7 -8 -28 -18 -54 -21 -58 -3 -3 -14 22 -23 55 -16 55 -35 76 -50 51z"/>
<path d="M5124 4286 c-6 -15 39 -153 55 -169 17 -17 38 10 52 64 7 27 16 49
19 49 3 0 12 -22 19 -49 14 -55 35 -81 52 -64 14 14 59 139 59 164 0 40 -32
16 -47 -36 -8 -27 -18 -54 -22 -58 -5 -4 -16 19 -25 52 -13 47 -21 61 -36 61
-14 0 -22 -14 -35 -57 -9 -32 -17 -62 -19 -68 -1 -5 -13 20 -25 58 -22 65 -36
81 -47 53z"/>
<path d="M5416 4292 c-6 -9 41 -160 54 -175 17 -19 40 8 51 59 7 30 15 54 19
54 3 0 14 -25 24 -56 15 -49 38 -76 52 -61 11 11 63 171 58 178 -14 23 -33 3
-49 -51 -10 -33 -22 -57 -25 -53 -4 4 -15 32 -25 61 -24 74 -46 71 -69 -9 -9
-34 -19 -59 -21 -57 -3 3 -13 29 -23 58 -18 52 -34 71 -46 52z"/>
<path d="M6047 4282 c-10 -10 -17 -24 -17 -30 0 -17 25 -15 40 3 16 20 59 19
67 -1 7 -20 -8 -30 -58 -38 -60 -10 -78 -70 -29 -96 20 -11 66 -4 86 12 7 5
16 3 23 -6 7 -8 18 -13 24 -10 16 6 6 146 -12 167 -19 24 -102 23 -124 -1z
m91 -103 c-4 -30 -33 -47 -55 -33 -26 16 -27 33 -1 43 41 17 60 13 56 -10z"/>
<path d="M6244 4275 c-9 -36 0 -143 13 -156 20 -20 33 1 33 56 0 69 7 85 36
85 23 0 24 -3 24 -62 0 -70 10 -94 34 -85 11 4 16 24 18 74 3 66 4 68 31 71
l27 3 0 -71 c0 -56 3 -72 16 -77 23 -9 34 15 34 77 0 93 -37 131 -97 99 -18
-10 -26 -10 -35 -1 -16 16 -61 15 -77 0 -11 -10 -14 -10 -18 0 -8 21 -32 13
-39 -13z"/>
<path d="M6585 4275 c-50 -49 -26 -144 40 -161 28 -7 78 10 96 32 19 23 0 30
-32 11 -39 -22 -52 -21 -72 1 -25 28 -21 32 32 32 65 0 81 7 81 37 0 65 -97
97 -145 48z m95 -24 c15 -30 14 -31 -35 -31 -25 0 -45 3 -45 6 0 20 24 44 45
44 14 0 29 -8 35 -19z"/>
<path d="M6782 4208 c2 -75 6 -93 18 -93 11 0 17 17 22 60 11 82 13 87 45 83
27 -3 28 -5 33 -73 4 -53 9 -70 20 -70 24 0 27 141 4 166 -19 21 -64 25 -82 7
-9 -9 -15 -9 -24 0 -7 7 -18 12 -25 12 -11 0 -13 -21 -11 -92z"/>
<path d="M7007 4293 c-4 -3 -7 -37 -7 -75 0 -55 4 -72 20 -88 24 -24 48 -25
77 -5 18 13 22 13 33 0 22 -27 30 -5 30 86 0 81 -2 90 -17 87 -14 -3 -19 -15
-21 -63 -3 -64 -14 -85 -43 -85 -24 0 -41 33 -39 78 3 60 1 72 -13 72 -8 0
-17 -3 -20 -7z"/>
<path d="M7358 4270 c-27 -27 -30 -36 -25 -71 7 -50 30 -77 72 -85 40 -7 90
16 98 46 8 29 -11 35 -37 11 -42 -39 -86 -22 -86 34 0 17 5 36 12 43 17 17 53
15 68 -3 18 -21 40 -19 40 4 0 27 -37 51 -78 51 -24 0 -42 -9 -64 -30z"/>
<path d="M7576 4275 c-56 -52 -22 -149 56 -162 32 -5 41 -1 68 25 87 87 -33
221 -124 137z m84 -15 c42 -22 29 -110 -16 -110 -31 0 -58 41 -49 72 15 46 31
56 65 38z"/>
<path d="M7782 4208 c2 -75 6 -93 18 -93 11 0 16 15 18 61 2 46 8 66 23 80 29
26 43 5 49 -74 4 -51 9 -67 20 -67 11 0 16 13 18 50 4 81 9 95 37 95 24 0 25
-3 25 -58 0 -60 18 -101 38 -88 7 4 12 36 12 80 0 58 -4 76 -18 89 -21 19 -63
22 -78 7 -6 -6 -20 -6 -41 2 -24 9 -38 9 -57 0 -16 -7 -28 -8 -31 -2 -4 6 -13
10 -21 10 -12 0 -14 -16 -12 -92z"/>
<path d="M3233 4273 c-16 -6 -17 -55 -1 -71 17 -17 1409 -17 1426 0 7 7 12 21
12 33 0 12 -5 26 -12 33 -9 9 -180 12 -713 11 -385 0 -706 -3 -712 -6z"/>
<path d="M8187 4273 c-14 -13 -7 -71 9 -77 9 -3 330 -6 714 -6 681 0 700 1
710 19 7 13 7 28 0 45 l-10 26 -708 0 c-390 0 -712 -3 -715 -7z"/>
<path d="M5703 4144 c-3 -8 -1 -20 5 -26 15 -15 43 8 35 28 -7 19 -32 18 -40
-2z"/>
<path d="M7233 4144 c-3 -8 -1 -20 6 -27 14 -14 47 15 37 32 -10 16 -36 13
-43 -5z"/>
</g>
</svg>
